<?xml version="1.0" ?><svg height="277.5" viewBox="0 0 277.5 282" width="282" xmlns="http://www.w3.org/2000/svg"><path d="M258.1,7.4H20.7C12.5,7.4,5.9,14,5.9,22.2v237.4c0,8.1,6.6,14.7,14.7,14.7h237.4c8.1,0,14.7-6.6,14.7-14.7V22.2   C272.8,14,266.2,7.4,258.1,7.4z M208.1,107.2c0.1,1.5,0.1,2.9,0.1,4.4c0,44.8-34.1,96.5-96.5,96.5v0c-18.4,0-36.5-5.3-52-15.2   c2.7,0.3,5.4,0.5,8.1,0.5c15.3,0,30.1-5.1,42.1-14.5c-14.5-0.3-27.2-9.7-31.7-23.5c5.1,1,10.3,0.8,15.3-0.6   c-15.8-3.2-27.2-17.1-27.2-33.2c0-0.1,0-0.3,0-0.4c4.7,2.6,10,4.1,15.4,4.2c-14.9-9.9-19.5-29.8-10.5-45.3   c17.2,21.2,42.6,34.1,69.9,35.4c-2.7-11.8,1-24.1,9.8-32.4c13.7-12.8,35.1-12.2,48,1.5c7.6-1.5,14.9-4.3,21.5-8.2   c-2.5,7.9-7.8,14.5-14.9,18.8c6.7-0.8,13.3-2.6,19.5-5.3C220.5,96.4,214.7,102.4,208.1,107.2z"/></svg>